<svg width="25" height="25" viewBox="0 0 25 25" fill="none" xmlns="http://www.w3.org/2000/svg">
<path d="M20.6775 11.5556L4.92943 11.31C4.6311 11.3054 4.34334 11.4063 4.12946 11.5905C3.91559 11.7747 3.79311 12.0272 3.78897 12.2924C3.78484 12.5576 3.89938 12.8137 4.10741 13.0045C4.31544 13.1953 4.59991 13.3051 4.89824 13.3098L20.6463 13.5554C20.9447 13.56 21.2324 13.4591 21.4463 13.2749C21.6602 13.0907 21.7826 12.8382 21.7868 12.573C21.7909 12.3079 21.6764 12.0517 21.4683 11.8609C21.2603 11.6701 20.9758 11.5603 20.6775 11.5556Z" fill="black"/>
<path d="M20.5995 16.555L4.85143 16.3094C4.55309 16.3048 4.26534 16.4057 4.05146 16.5899C3.83758 16.7741 3.71511 17.0266 3.71097 17.2918C3.70683 17.5569 3.82138 17.8131 4.02941 18.0039C4.23744 18.1947 4.52191 18.3045 4.82024 18.3092L20.5683 18.5548C20.8667 18.5594 21.1544 18.4585 21.3683 18.2743C21.5822 18.0901 21.7046 17.8376 21.7088 17.5724C21.7129 17.3072 21.5984 17.0511 21.3903 16.8603C21.1823 16.6695 20.8978 16.5597 20.5995 16.555Z" fill="black"/>
<path d="M20.7555 6.55623L5.00743 6.31064C4.7091 6.30599 4.42134 6.40687 4.20747 6.5911C3.99359 6.77532 3.87111 7.02779 3.86698 7.29298C3.86284 7.55816 3.97739 7.81433 4.18541 8.00514C4.39344 8.19594 4.67791 8.30575 4.97625 8.3104L20.7243 8.55598C21.0227 8.56064 21.3104 8.45975 21.5243 8.27553C21.7382 8.09131 21.8607 7.83883 21.8648 7.57365C21.8689 7.30846 21.7544 7.05229 21.5463 6.86149C21.3383 6.67069 21.0538 6.56088 20.7555 6.55623Z" fill="black"/>
</svg>
