<svg width="24" height="27" viewBox="0 0 24 27" fill="none" xmlns="http://www.w3.org/2000/svg">
<path d="M23.3751 23.125L15.5001 9.7375C15.4895 9.68969 15.4748 9.64286 15.4563 9.5975L12.9976 5.275L14.5113 2.55375C14.6274 2.35069 14.658 2.10986 14.5965 1.88423C14.5349 1.6586 14.3863 1.46665 14.1832 1.35062C13.9802 1.23459 13.7393 1.20397 13.5137 1.26551C13.2881 1.32705 13.0961 1.47569 12.9801 1.67875L12.0001 3.4725L11.0113 1.7225C10.8953 1.51944 10.7034 1.3708 10.4777 1.30926C10.2521 1.24772 10.0113 1.27834 9.80822 1.39437C9.60517 1.5104 9.45652 1.70235 9.39499 1.92798C9.33345 2.15361 9.36407 2.39444 9.4801 2.5975L11.0026 5.275L8.61385 9.57125C8.59513 9.61652 8.58048 9.66337 8.5701 9.71125L0.625099 23.125C0.471943 23.3903 0.391092 23.6911 0.390627 23.9974C0.390162 24.3037 0.470098 24.6047 0.622447 24.8705C0.774795 25.1362 0.99422 25.3573 1.25879 25.5116C1.52336 25.666 1.8238 25.7482 2.1301 25.75H21.8438C22.1524 25.7528 22.4561 25.6739 22.7244 25.5215C22.9926 25.369 23.2157 25.1483 23.3712 24.8818C23.5267 24.6153 23.6089 24.3125 23.6096 24.0039C23.6103 23.6954 23.5294 23.3922 23.3751 23.125ZM9.1126 24L12.0001 18.8025L14.8876 24H9.1126ZM16.8913 24L12.7701 16.5712C12.6944 16.4345 12.5835 16.3205 12.4489 16.2411C12.3142 16.1617 12.1608 16.1199 12.0045 16.1199C11.8482 16.1199 11.6947 16.1617 11.5601 16.2411C11.4254 16.3205 11.3145 16.4345 11.2388 16.5712L7.10885 24H2.15635L12.0001 7.375L21.8438 24H16.8913Z" fill="#083740" stroke="#083740" stroke-width="0.6"/>
</svg>
