<svg width="13" height="13" viewBox="0 0 13 13" fill="none" xmlns="http://www.w3.org/2000/svg">
    <path d="M0.4375 12.75C0.4375 11.5565 0.911606 10.4119 1.75552 9.56802C2.59943 8.7241 3.74403 8.25 4.9375 8.25C6.13098 8.25 7.27557 8.7241 8.11948 9.56802C8.9634 10.4119 9.4375 11.5565 9.4375 12.75H8.3125C8.3125 11.8549 7.95692 10.9964 7.32399 10.3635C6.69105 9.73058 5.83261 9.375 4.9375 9.375C4.0424 9.375 3.18395 9.73058 2.55102 10.3635C1.91808 10.9964 1.5625 11.8549 1.5625 12.75H0.4375ZM4.9375 7.6875C3.07281 7.6875 1.5625 6.17719 1.5625 4.3125C1.5625 2.44781 3.07281 0.9375 4.9375 0.9375C6.80219 0.9375 8.3125 2.44781 8.3125 4.3125C8.3125 6.17719 6.80219 7.6875 4.9375 7.6875ZM4.9375 6.5625C6.18063 6.5625 7.1875 5.55562 7.1875 4.3125C7.1875 3.06937 6.18063 2.0625 4.9375 2.0625C3.69438 2.0625 2.6875 3.06937 2.6875 4.3125C2.6875 5.55562 3.69438 6.5625 4.9375 6.5625ZM9.59725 8.64544C10.3878 9.00146 11.0586 9.5782 11.5292 10.3063C11.9998 11.0345 12.2501 11.883 12.25 12.75H11.125C11.1251 12.0997 10.9374 11.4633 10.5845 10.9171C10.2315 10.371 9.72836 9.93843 9.13544 9.67144L9.59669 8.64544H9.59725ZM9.21025 2.29481C9.77698 2.52842 10.2615 2.92511 10.6024 3.43457C10.9434 3.94402 11.1252 4.54326 11.125 5.15625C11.1252 5.92819 10.8368 6.67231 10.3164 7.24246C9.79603 7.81261 9.08125 8.16757 8.3125 8.23762V7.10531C8.72928 7.04562 9.11595 6.85388 9.41574 6.55826C9.71552 6.26263 9.91264 5.87868 9.97815 5.46277C10.0437 5.04687 9.97411 4.62092 9.77972 4.24745C9.58532 3.87398 9.27632 3.57267 8.89806 3.38775L9.21025 2.29481Z"
          fill="#748476"/>
</svg>
