<svg width="28" height="24" viewBox="0 0 28 24" fill="none" xmlns="http://www.w3.org/2000/svg">
<path d="M10.6559 0L9.87494 0.10067C9.87494 0.10067 6.37094 0.51085 3.81194 2.71168H3.78194L3.74994 2.74381C3.17594 3.30928 2.92594 4.00433 2.53094 5.02068C2.06532 6.24346 1.66894 7.49519 1.34394 8.76905C0.601939 11.6424 -6.10352e-05 15.1231 -6.10352e-05 18.3071V18.5748L0.124939 18.8425C1.05094 20.5828 2.69494 21.6913 4.21894 22.457C5.74194 23.2228 7.05894 23.6287 7.96894 23.6619L8.56294 23.6951L8.87494 23.1264L9.96894 21.0509C11.1289 21.3315 12.4649 21.5199 13.9999 21.5199C15.5349 21.5199 16.8709 21.3315 18.0309 21.0509L19.1249 23.1264L19.4379 23.6951L20.0309 23.6619C20.9409 23.6287 22.2579 23.2228 23.7809 22.457C25.3049 21.6913 26.9489 20.5828 27.8749 18.8425L27.9999 18.5748V18.3071C27.9999 15.1231 27.3979 11.6424 26.6559 8.76905C26.3309 7.49519 25.9346 6.24346 25.4689 5.02068C25.0739 4.00326 24.8239 3.30928 24.2499 2.74488L24.2189 2.71061H24.1869C21.6299 0.510849 18.1249 0.10067 18.1249 0.10067L17.3439 0L17.0619 0.770023C17.0619 0.770023 16.7729 1.55183 16.5939 2.44394C15.7342 2.31691 14.8678 2.24965 13.9999 2.2426C13.4649 2.2426 12.5399 2.28008 11.4059 2.44394C11.2259 1.55183 10.9369 0.770023 10.9369 0.770023L10.6559 0ZM9.28094 2.44394C9.32394 2.59387 9.36694 2.72346 9.40594 2.84555C8.11294 3.18826 6.73394 3.71089 5.46894 4.55159L6.53094 6.35938C9.12494 4.63513 12.8509 4.38452 13.9999 4.38452C15.1479 4.38452 18.8749 4.63513 21.4689 6.35938L22.5309 4.55159C21.2659 3.71089 19.8869 3.18826 18.5939 2.84448C18.6329 2.72346 18.6759 2.59387 18.7189 2.44287C19.6519 2.64421 21.4339 3.10472 22.9059 4.35132C22.8979 4.35561 23.2809 4.97463 23.6249 5.8571C23.9769 6.76528 24.3669 7.97439 24.7189 9.33773C25.3949 11.952 25.9259 15.1359 25.9689 17.9386C25.3389 18.9678 24.1719 19.8964 22.9369 20.5164C22.1624 20.9084 21.343 21.1893 20.4999 21.3518L19.9999 20.449C20.2969 20.3312 20.5899 20.2027 20.8439 20.0806C22.3829 19.3566 23.2189 18.5748 23.2189 18.5748L21.9059 16.9683C21.9059 16.9683 21.3439 17.521 20.0309 18.14C18.7199 18.759 16.7149 19.378 13.9999 19.378C11.2849 19.378 9.28094 18.759 7.96894 18.14C6.65594 17.521 6.09394 16.9683 6.09394 16.9683L4.78094 18.5748C4.78094 18.5748 5.61694 19.3566 7.15594 20.0806C7.40994 20.2027 7.70294 20.3322 7.99994 20.449L7.49994 21.3529C6.65641 21.1898 5.83667 20.9082 5.06194 20.5154C3.82794 19.8964 2.65994 18.9678 2.03194 17.9386C2.07394 15.1359 2.60494 11.952 3.28194 9.33773C3.58109 8.1552 3.94608 6.99291 4.37494 5.8571C4.71894 4.97463 5.10194 4.35561 5.09394 4.35132C6.56594 3.10472 8.34794 2.64421 9.28094 2.44394ZM10.4999 9.73934C9.72694 9.73934 9.04294 10.2116 8.62494 10.8103C8.20694 11.409 7.99994 12.1447 7.99994 12.9522C7.99994 13.7597 8.20694 14.4955 8.62494 15.0942C9.04294 15.6928 9.72694 16.1651 10.4999 16.1651C11.2729 16.1651 11.9569 15.6928 12.3749 15.0942C12.7929 14.4955 12.9999 13.7597 12.9999 12.9522C12.9999 12.1447 12.7929 11.409 12.3749 10.8103C11.9569 10.2116 11.2729 9.73934 10.4999 9.73934ZM17.4999 9.73934C16.7269 9.73934 16.0429 10.2116 15.6249 10.8103C15.2069 11.409 14.9999 12.1447 14.9999 12.9522C14.9999 13.7597 15.2069 14.4955 15.6249 15.0942C16.0429 15.6928 16.7269 16.1651 17.4999 16.1651C18.2729 16.1651 18.9569 15.6928 19.3749 15.0942C19.7929 14.4955 19.9999 13.7597 19.9999 12.9522C19.9999 12.1447 19.7929 11.409 19.3749 10.8103C18.9569 10.2116 18.2729 9.73934 17.4999 9.73934ZM10.4999 11.8813C10.5549 11.8813 10.6249 11.9027 10.7499 12.0826C10.8749 12.2615 10.9999 12.5753 10.9999 12.9522C10.9999 13.3292 10.8749 13.643 10.7499 13.8229C10.6249 14.0018 10.5549 14.0232 10.4999 14.0232C10.4449 14.0232 10.3749 14.0018 10.2499 13.8219C10.0846 13.5667 9.99721 13.2628 9.99994 12.9522C9.99994 12.5753 10.1249 12.2615 10.2499 12.0815C10.3749 11.9027 10.4449 11.8813 10.4999 11.8813ZM17.4999 11.8813C17.5549 11.8813 17.6249 11.9027 17.7499 12.0826C17.8749 12.2615 17.9999 12.5753 17.9999 12.9522C17.9999 13.3292 17.8749 13.643 17.7499 13.8229C17.6249 14.0018 17.5549 14.0232 17.4999 14.0232C17.4449 14.0232 17.3749 14.0018 17.2499 13.8219C17.0846 13.5667 16.9972 13.2628 16.9999 12.9522C16.9999 12.5753 17.1249 12.2615 17.2499 12.0815C17.3749 11.9027 17.4449 11.8813 17.4999 11.8813Z" fill="white"/>
</svg>
