<svg width="151" height="80" viewBox="0 0 151 80" fill="none" xmlns="http://www.w3.org/2000/svg"><path d="M12.691 19.354c4.551 0 7.659 3.071 7.659 7.659V40H14.8V28.197c0-2.331-1.517-3.848-3.7-3.848-2.183 0-3.7 1.517-3.7 3.848V40H1.85V19.798h5.18v2.442c1.036-1.961 3.108-2.886 5.661-2.886Zm30.112 9.953c0 .814-.074 1.591-.259 2.146H28.336c.333 2.553 2.146 4.181 4.884 4.181 1.961 0 3.404-.851 4.181-2.22l4.44 2.109c-1.22 2.96-4.55 4.921-8.695 4.921-6.4 0-10.582-4.736-10.582-10.582 0-6.031 4.44-10.508 10.212-10.508 5.661 0 10.027 4.366 10.027 9.953Zm-14.356-1.924h8.473c-.222-2.146-1.85-3.589-4.144-3.589-2.183 0-3.774 1.258-4.329 3.589Zm24.759 13.061c-4.403 0-8.03-2.146-9.287-5.809l4.107-1.924c1.073 2.257 2.886 3.478 5.18 3.478 1.739 0 2.849-.703 2.849-1.813 0-1.332-1.628-1.739-2.331-1.924l-3.552-.925c-3.663-.962-5.44-3.108-5.44-5.883 0-3.737 3.22-6.29 7.956-6.29 4.144 0 7.437 1.998 8.732 5.291l-4.144 1.924c-.666-1.739-2.405-2.775-4.588-2.775-1.628 0-2.59.629-2.59 1.665 0 1.221 1.406 1.591 2.072 1.776l3.737.999c3.589.962 5.513 3.034 5.513 5.92 0 3.737-3.367 6.29-8.214 6.29Zm20.486-.222c-4.884 0-7.696-2.775-7.696-7.511v-8.103h-3.478v-4.81h.26c2.071 0 3.218-1.036 3.218-3.108v-2.96h5.55v6.068h4.736v4.81h-4.736v8.103c0 2.072 1.11 3.071 3.441 3.071.333 0 .777-.037 1.295-.111v4.366c-.74.111-1.739.185-2.59.185Zm30.538-20.424h5.772L103.046 40h-4.884l-4.625-13.468L88.875 40h-4.884l-6.956-20.202h5.735l3.737 12.062 3.922-12.062h6.18l3.921 12.062 3.7-12.062Zm15.47-.444c5.143 0 8.658 2.997 8.658 7.326V40h-5.18v-1.85c-1.517 1.591-3.367 2.294-5.698 2.294-4.588 0-7.474-2.59-7.474-5.957 0-2.997 2.368-4.958 6.475-5.809l6.327-1.332v-.666c0-1.517-1.258-2.516-3.108-2.516-1.961 0-3.589 1.147-4.181 2.96l-4.773-2.294c1.184-3.33 4.662-5.476 8.954-5.476Zm-1.369 17.02c2.516 0 4.477-1.813 4.477-4.07v-.962l-5.328 1.184c-1.147.259-1.739.962-1.739 1.887 0 1.221.999 1.961 2.59 1.961Zm26.599-16.576h5.92l-8.769 22.422c-.74 1.924-2.442 6.031-7.881 6.031-1.184 0-2.331-.185-3.182-.629v-4.551c.703.222 1.702.37 2.516.37 2.22 0 2.849-1.221 3.33-2.294l.518-1.147-7.918-20.202h5.92l4.773 13.098 4.773-13.098ZM65.578 52.093a1.736 1.736 0 0 0-2.454-.05c-12.422 11.937-32.212 11.57-44.115-.817a1.736 1.736 0 1 0-2.503 2.405 34.403 34.403 0 0 0 11.322 7.844 34.44 34.44 0 0 0 12.99 2.78 34.56 34.56 0 0 0 13.09-2.304 34.636 34.636 0 0 0 11.621-7.404 1.736 1.736 0 0 0 .05-2.454Zm5.071-1.863a2.17 2.17 0 1 1-3.007-3.13 2.17 2.17 0 0 1 3.007 3.13Zm-56.017-4.186a2.17 2.17 0 1 0-3.129 3.007 2.17 2.17 0 0 0 3.13-3.007Z" fill="#fff"/></svg>
