<svg width="49" height="49" viewBox="0 0 49 49" fill="none" xmlns="http://www.w3.org/2000/svg">
<rect width="49" height="49" rx="24.5" fill="#212121"/>
<rect width="49" height="49" rx="24.5" fill="#141414"/>
<path d="M25 31.25C21 31.25 17.75 28 17.75 24C17.75 20 21 16.75 25 16.75C29 16.75 32.25 20 32.25 24C32.25 28 29 31.25 25 31.25ZM25 18.25C21.83 18.25 19.25 20.83 19.25 24C19.25 27.17 21.83 29.75 25 29.75C28.17 29.75 30.75 27.17 30.75 24C30.75 20.83 28.17 18.25 25 18.25Z" fill="white"/>
<path d="M25 34.96C24.45 34.96 24 34.55 24 34V33.92C24 33.37 24.45 32.92 25 32.92C25.55 32.92 26 33.37 26 33.92C26 34.47 25.55 34.96 25 34.96ZM32.14 32.14C31.88 32.14 31.63 32.04 31.43 31.85L31.3 31.72C30.91 31.33 30.91 30.7 31.3 30.31C31.69 29.92 32.32 29.92 32.71 30.31L32.84 30.44C33.23 30.83 33.23 31.46 32.84 31.85C32.65 32.04 32.4 32.14 32.14 32.14ZM17.86 32.14C17.6 32.14 17.35 32.04 17.15 31.85C16.76 31.46 16.76 30.83 17.15 30.44L17.28 30.31C17.67 29.92 18.3 29.92 18.69 30.31C19.08 30.7 19.08 31.33 18.69 31.72L18.56 31.85C18.37 32.04 18.11 32.14 17.86 32.14ZM35 25H34.92C34.37 25 33.92 24.55 33.92 24C33.92 23.45 34.37 23 34.92 23C35.47 23 35.96 23.45 35.96 24C35.96 24.55 35.55 25 35 25ZM15.08 25H15C14.45 25 14 24.55 14 24C14 23.45 14.45 23 15 23C15.55 23 16.04 23.45 16.04 24C16.04 24.55 15.63 25 15.08 25ZM32.01 17.99C31.75 17.99 31.5 17.89 31.3 17.7C30.91 17.31 30.91 16.68 31.3 16.29L31.43 16.16C31.82 15.77 32.45 15.77 32.84 16.16C33.23 16.55 33.23 17.18 32.84 17.57L32.71 17.7C32.52 17.89 32.27 17.99 32.01 17.99ZM17.99 17.99C17.73 17.99 17.48 17.89 17.28 17.7L17.15 17.56C16.76 17.17 16.76 16.54 17.15 16.15C17.54 15.76 18.17 15.76 18.56 16.15L18.69 16.28C19.08 16.67 19.08 17.3 18.69 17.69C18.5 17.89 18.24 17.99 17.99 17.99ZM25 15.04C24.45 15.04 24 14.63 24 14.08V14C24 13.45 24.45 13 25 13C25.55 13 26 13.45 26 14C26 14.55 25.55 15.04 25 15.04Z" fill="white"/>
</svg>
