<svg width="28" height="29" viewBox="0 0 28 29" fill="none" xmlns="http://www.w3.org/2000/svg">
<path d="M19.833 4.00008H24.4997C24.8091 4.00008 25.1058 4.123 25.3246 4.34179C25.5434 4.56058 25.6663 4.85733 25.6663 5.16675V23.8334C25.6663 24.1428 25.5434 24.4396 25.3246 24.6584C25.1058 24.8772 24.8091 25.0001 24.4997 25.0001H3.49967C3.19026 25.0001 2.89351 24.8772 2.67472 24.6584C2.45592 24.4396 2.33301 24.1428 2.33301 23.8334V5.16675C2.33301 4.85733 2.45592 4.56058 2.67472 4.34179C2.89351 4.123 3.19026 4.00008 3.49967 4.00008H8.16634V1.66675H10.4997V4.00008H17.4997V1.66675H19.833V4.00008ZM17.4997 6.33342H10.4997V8.66675H8.16634V6.33342H4.66634V11.0001H23.333V6.33342H19.833V8.66675H17.4997V6.33342ZM23.333 13.3334H4.66634V22.6667H23.333V13.3334Z" fill="#083740"/>
</svg>
