<svg width="23" height="28" viewBox="0 0 23 28" fill="none" xmlns="http://www.w3.org/2000/svg">
<path fill-rule="evenodd" clip-rule="evenodd" d="M1.43457 11.9849C1.4535 6.41447 5.98459 1.91405 11.5551 1.93292C17.1255 1.95191 21.6259 6.483 21.6071 12.0535V12.1677C21.5385 15.7887 19.5167 19.1355 17.0379 21.7513C15.6204 23.2234 14.0373 24.5266 12.3204 25.635C11.8613 26.0321 11.1803 26.0321 10.7212 25.635C8.16164 23.969 5.9152 21.8657 4.08463 19.4211C2.45308 17.2894 1.52674 14.702 1.43457 12.0192V11.9849Z" stroke="#083740" stroke-width="2.3" stroke-linecap="round" stroke-linejoin="round"/>
<path d="M11.5201 15.4117C13.3056 15.4117 14.7529 13.9644 14.7529 12.179C14.7529 10.3935 13.3056 8.94617 11.5201 8.94617C9.73472 8.94617 8.28735 10.3935 8.28735 12.179C8.28735 13.9644 9.73472 15.4117 11.5201 15.4117Z" stroke="#083740" stroke-width="2" stroke-linecap="round" stroke-linejoin="round"/>
</svg>
