<svg width="20" height="26" viewBox="0 0 20 26" fill="none" xmlns="http://www.w3.org/2000/svg">
<path d="M19.3337 25.1667H17.0003V22.8334C17.0003 21.9052 16.6316 21.0149 15.9752 20.3585C15.3188 19.7022 14.4286 19.3334 13.5003 19.3334H6.50032C5.57207 19.3334 4.68183 19.7022 4.02545 20.3585C3.36907 21.0149 3.00033 21.9052 3.00033 22.8334V25.1667H0.666992V22.8334C0.666992 21.2863 1.28157 19.8026 2.37554 18.7086C3.4695 17.6147 4.95323 17.0001 6.50032 17.0001H13.5003C15.0474 17.0001 16.5312 17.6147 17.6251 18.7086C18.7191 19.8026 19.3337 21.2863 19.3337 22.8334V25.1667ZM10.0003 14.6667C9.08107 14.6667 8.17082 14.4857 7.32154 14.1339C6.47226 13.7821 5.70059 13.2665 5.05058 12.6165C4.40057 11.9665 3.88495 11.1948 3.53317 10.3455C3.18139 9.49625 3.00033 8.586 3.00033 7.66675C3.00033 6.7475 3.18139 5.83724 3.53317 4.98796C3.88495 4.13868 4.40057 3.36701 5.05058 2.717C5.70059 2.06699 6.47226 1.55137 7.32154 1.19959C8.17082 0.847808 9.08107 0.666748 10.0003 0.666748C11.8568 0.666748 13.6373 1.40425 14.9501 2.717C16.2628 4.02976 17.0003 5.81023 17.0003 7.66675C17.0003 9.52326 16.2628 11.3037 14.9501 12.6165C13.6373 13.9293 11.8568 14.6667 10.0003 14.6667ZM10.0003 12.3334C11.238 12.3334 12.425 11.8418 13.3002 10.9666C14.1753 10.0914 14.667 8.90443 14.667 7.66675C14.667 6.42907 14.1753 5.24209 13.3002 4.36692C12.425 3.49175 11.238 3.00008 10.0003 3.00008C8.76265 3.00008 7.57566 3.49175 6.70049 4.36692C5.82532 5.24209 5.33366 6.42907 5.33366 7.66675C5.33366 8.90443 5.82532 10.0914 6.70049 10.9666C7.57566 11.8418 8.76265 12.3334 10.0003 12.3334Z" fill="#083740"/>
</svg>
